<?xml version="1.0" encoding="UTF-8"?>
<svg id="Calque_2" data-name="Calque 2" xmlns="http://www.w3.org/2000/svg" viewBox="0 0 1025.4 570.56">
  <defs>
    <style>
      .cls-1 {
        fill: #5ab4ff;
      }
    </style>
  </defs>
  <g id="Calque_13" data-name="Calque 13">
    <path class="cls-1" d="M0,168.53l62.22,124.45c14.78,29.57,43.82,49.25,76.72,52.43,66.44,6.42,196.62,45.61,373.23,224.75.2.2.54.06.54-.22v-125.78S220.1,133.02,0,168.53Z"/>
    <path class="cls-1" d="M141.75,152.28L89.21,20.64s215.64,84.31,423.51,305.24v118.27s-162.93-167.9-321.14-239.95c-22.66-10.32-40.6-28.8-49.84-51.92Z"/>
    <path class="cls-1" d="M300.7,109.08L282.33,0s114.09,83.97,230.39,201.68v124.21s-57.94-65.82-176.14-156.92c-19.09-14.71-31.88-36.13-35.89-59.89Z"/>
    <path class="cls-1" d="M1025.39,168.65l-62.16,124.33c-14.78,29.57-43.82,49.25-76.72,52.43-66.49,6.43-196.8,45.66-373.6,225.13-.06.06-.17.02-.17-.07v-126.27s0-.05.03-.07c3.17-3.37,293.68-310.78,512.56-275.62.07.01.1.08.07.15Z"/>
    <path class="cls-1" d="M883.7,152.28l52.54-131.64s-215.64,84.31-423.51,305.24v118.27s162.93-167.9,321.14-239.95c22.66-10.32,40.6-28.8,49.84-51.92Z"/>
    <path class="cls-1" d="M724.75,109.08L743.11,0s-114.09,83.97-230.39,201.68v124.21s57.94-65.82,176.14-156.92c19.09-14.71,31.88-36.13,35.89-59.89Z"/>
  </g>
</svg>