<?xml version="1.0" encoding="UTF-8"?>
<svg id="Calque_2" data-name="Calque 2" xmlns="http://www.w3.org/2000/svg" viewBox="0 0 1205.98 1205.98">
  <defs>
    <style>
      .cls-1 {
        stroke: #0a1a2f;
        stroke-miterlimit: 10;
        stroke-width: 5px;
      }

      .cls-1, .cls-2 {
        fill: #5ab4ff;
      }

      .cls-3 {
        fill: #0a1a2f;
      }
    </style>
  </defs>
  <g id="Calque_13" data-name="Calque 13">
    <rect id="Fond" class="cls-3" x="0" y="0" width="1205.98" height="1205.98"/>
    <path class="cls-1" d="M90.27,488.8l62.17,124.34c14.69,29.39,43.4,49.4,76.11,52.47,66.3,6.23,196.96,45.15,374.45,225.37v-126.55S310.36,453.3,90.27,488.8Z"/>
    <path class="cls-1" d="M232.02,472.56l-52.54-131.64s215.64,84.31,423.51,305.24v118.27s-162.93-167.9-321.14-239.95c-22.66-10.32-40.6-28.8-49.84-51.92Z"/>
    <path class="cls-1" d="M390.96,429.35l-18.36-109.08s114.09,83.97,230.39,201.68v124.21s-57.94-65.82-176.14-156.92c-19.09-14.71-31.88-36.13-35.89-59.89Z"/>
    <path class="cls-1" d="M1115.71,488.8l-62.17,124.34c-14.69,29.39-43.4,49.4-76.11,52.47-66.3,6.23-196.96,45.15-374.45,225.37v-126.55s292.63-311.13,512.72-275.63Z"/>
    <path class="cls-1" d="M973.96,472.56l52.54-131.64s-215.64,84.31-423.51,305.24v118.27s162.93-167.9,321.14-239.95c22.66-10.32,40.6-28.8,49.84-51.92Z"/>
    <path class="cls-1" d="M815.02,429.35l18.36-109.08s-114.09,83.97-230.39,201.68v124.21s57.94-65.82,176.14-156.92c19.09-14.71,31.88-36.13,35.89-59.89Z"/>
    <path class="cls-2" d="M602.99,251.3l3.52,33.13c3.65,34.36,30.8,61.51,65.16,65.16l33.13,3.52-33.13,3.52c-34.36,3.65-61.51,30.8-65.16,65.16l-3.52,33.13-3.52-33.13c-3.65-34.36-30.8-61.51-65.16-65.16l-33.13-3.52,33.13-3.52c34.36-3.65,61.51-30.8,65.16-65.16l3.52-33.13Z"/>
  </g>
</svg>